<svg width="12" height="13" viewBox="0 0 12 13" fill="none" xmlns="http://www.w3.org/2000/svg">
<path d="M8.16667 3.25V2.81667C8.16667 2.20995 8.16667 1.90658 8.04859 1.67485C7.94473 1.471 7.779 1.30527 7.57516 1.20141C7.34342 1.08334 7.04006 1.08334 6.43333 1.08334H5.56667C4.95994 1.08334 4.65658 1.08334 4.42484 1.20141C4.221 1.30527 4.05527 1.471 3.95141 1.67485C3.83333 1.90658 3.83333 2.20995 3.83333 2.81667V3.25M4.91667 6.22917V8.9375M7.08333 6.22917V8.9375M1.125 3.25H10.875M9.79167 3.25V9.31667C9.79167 10.2268 9.79167 10.6818 9.61455 11.0294C9.45876 11.3352 9.21016 11.5838 8.9044 11.7396C8.5568 11.9167 8.10175 11.9167 7.19167 11.9167H4.80833C3.89825 11.9167 3.44321 11.9167 3.0956 11.7396C2.78984 11.5838 2.54124 11.3352 2.38545 11.0294C2.20833 10.6818 2.20833 10.2268 2.20833 9.31667V3.25" stroke="#AF202D" strokeLinecap="round" stroke-linejoin="round"/>
</svg>
